<svg xmlns="http://www.w3.org/2000/svg" width="900" height="450"
     style="font-family: -apple-system, BlinkMacSystemFont, 'Segoe UI', sans-serif;
            background:#fff; border-radius:8px; box-shadow:0 2px 8px rgba(0,0,0,.12)">
  <!-- title -->
  <text x="450.0" y="38" text-anchor="middle"
        font-size="15" font-weight="600" fill="#111">Median (p50) Latency per Operation (ms)</text>
  <!-- chart area border -->
  <rect x="70.0" y="60.0"
        width="790.0" height="260.0"
        fill="#F8FAFC" stroke="#E2E8F0"/>
  <!-- y-axis label -->
  <text transform="rotate(-90, 20.0, 190.0)"
        x="20.0" y="190.0"
        text-anchor="middle" font-size="12" fill="#555">Latency (ms)</text>
  <!-- y ticks -->
  <line x1="65.0" y1="320.0" x2="70.0" y2="320.0" stroke="#999" stroke-width="1"/><text x="62.0" y="324.0" text-anchor="end" font-size="10" fill="#666">0.0</text><line x1="65.0" y1="268.0" x2="70.0" y2="268.0" stroke="#999" stroke-width="1"/><text x="62.0" y="272.0" text-anchor="end" font-size="10" fill="#666">0.0</text><line x1="65.0" y1="216.0" x2="70.0" y2="216.0" stroke="#999" stroke-width="1"/><text x="62.0" y="220.0" text-anchor="end" font-size="10" fill="#666">0.0</text><line x1="65.0" y1="164.0" x2="70.0" y2="164.0" stroke="#999" stroke-width="1"/><text x="62.0" y="168.0" text-anchor="end" font-size="10" fill="#666">0.1</text><line x1="65.0" y1="112.0" x2="70.0" y2="112.0" stroke="#999" stroke-width="1"/><text x="62.0" y="116.0" text-anchor="end" font-size="10" fill="#666">0.1</text><line x1="65.0" y1="60.0" x2="70.0" y2="60.0" stroke="#999" stroke-width="1"/><text x="62.0" y="64.0" text-anchor="end" font-size="10" fill="#666">0.1</text>
  <!-- bars + labels -->
  <rect x="82.0" y="317.6" width="65.8" height="2.4" fill="#2563EB" rx="4"/><text x="114.9" y="312.6" text-anchor="middle" font-size="11" fill="#111">0.00</text><text transform="rotate(-35, 114.9, 338.0)" x="114.9" y="338.0" text-anchor="end" font-size="11" fill="#444">patient_list</text><rect x="159.8" y="315.2" width="65.8" height="4.8" fill="#16A34A" rx="4"/><text x="192.7" y="310.2" text-anchor="middle" font-size="11" fill="#111">0.00</text><text transform="rotate(-35, 192.7, 338.0)" x="192.7" y="338.0" text-anchor="end" font-size="11" fill="#444">patient_search_by_name</text><rect x="237.6" y="308.1" width="65.8" height="11.9" fill="#DC2626" rx="4"/><text x="270.5" y="303.1" text-anchor="middle" font-size="11" fill="#111">0.01</text><text transform="rotate(-35, 270.5, 338.0)" x="270.5" y="338.0" text-anchor="end" font-size="11" fill="#444">patient_create</text><rect x="315.4" y="315.2" width="65.8" height="4.8" fill="#D97706" rx="4"/><text x="348.3" y="310.2" text-anchor="middle" font-size="11" fill="#111">0.00</text><text transform="rotate(-35, 348.3, 338.0)" x="348.3" y="338.0" text-anchor="end" font-size="11" fill="#444">consultation_list</text><rect x="393.2" y="312.9" width="65.8" height="7.1" fill="#7C3AED" rx="4"/><text x="426.1" y="307.9" text-anchor="middle" font-size="11" fill="#111">0.00</text><text transform="rotate(-35, 426.1, 338.0)" x="426.1" y="338.0" text-anchor="end" font-size="11" fill="#444">consultation_create</text><rect x="471.0" y="317.6" width="65.8" height="2.4" fill="#0891B2" rx="4"/><text x="503.9" y="312.6" text-anchor="middle" font-size="11" fill="#111">0.00</text><text transform="rotate(-35, 503.9, 338.0)" x="503.9" y="338.0" text-anchor="end" font-size="11" fill="#444">consultation_get_by_id</text><rect x="548.8" y="296.2" width="65.8" height="23.8" fill="#DB2777" rx="4"/><text x="581.7" y="291.2" text-anchor="middle" font-size="11" fill="#111">0.01</text><text transform="rotate(-35, 581.7, 338.0)" x="581.7" y="338.0" text-anchor="end" font-size="11" fill="#444">mock_clinical_note_generation</text><rect x="626.6" y="303.3" width="65.8" height="16.7" fill="#65A30D" rx="4"/><text x="659.5" y="298.3" text-anchor="middle" font-size="11" fill="#111">0.01</text><text transform="rotate(-35, 659.5, 338.0)" x="659.5" y="338.0" text-anchor="end" font-size="11" fill="#444">transcript_normalizer</text><rect x="704.4" y="103.3" width="65.8" height="216.7" fill="#2563EB" rx="4"/><text x="737.3" y="98.3" text-anchor="middle" font-size="11" fill="#111">0.09</text><text transform="rotate(-35, 737.3, 338.0)" x="737.3" y="338.0" text-anchor="end" font-size="11" fill="#444">document_edit_single_field</text><rect x="782.2" y="317.6" width="65.8" height="2.4" fill="#16A34A" rx="4"/><text x="815.1" y="312.6" text-anchor="middle" font-size="11" fill="#111">0.00</text><text transform="rotate(-35, 815.1, 338.0)" x="815.1" y="338.0" text-anchor="end" font-size="11" fill="#444">version_history_retrieval</text>
  <!-- x-axis -->
  <line x1="70.0" y1="320.0"
        x2="860.0" y2="320.0"
        stroke="#999" stroke-width="1.5"/>
</svg>
